<svg id="Component_384_1" data-name="Component 384 – 1" xmlns="http://www.w3.org/2000/svg" width="28.797" height="29.62" viewBox="0 0 28.797 29.62">
  <rect id="Rectangle_2" data-name="Rectangle 2" width="28.797" height="29.62" rx="14.399" fill="#fff"/>
  <path id="Path_14" data-name="Path 14" d="M117.438,12.71a.724.724,0,0,0,.722-.722V2.211l3.079,2.742a.724.724,0,1,0,.962-1.082L118.051.179a.726.726,0,0,0-.926-.024.726.726,0,0,0-.313.289l-3.6,3.451a.723.723,0,1,0,1,1.046l2.5-2.405v9.452A.724.724,0,0,0,117.438,12.71Z" transform="translate(-103.658 8.341)" fill="#7889ff" stroke="#7889ff" stroke-width="0.7"/>
</svg>
