<svg id="flag" xmlns="http://www.w3.org/2000/svg" width="24.649" height="26.89" viewBox="0 0 24.649 26.89">
  <rect id="Rectangle_2034" data-name="Rectangle 2034" width="4" height="3" transform="translate(6.356 13.289)" fill="rgba(0,0,0,0.11)"/>
  <path id="Path_1010" data-name="Path 1010" d="M2.948,0A.448.448,0,0,0,2.5.448V26.442a.448.448,0,1,0,.9,0V.448A.448.448,0,0,0,2.948,0Z" transform="translate(-2.5)" fill="#f2f8ff"/>
  <path id="Path_1011" data-name="Path 1011" d="M20.982,9V19.756H18.293a1.793,1.793,0,1,0,0,3.585H34.875l-4.93-7.171L34.875,9Z" transform="translate(-10.226 -4.966)" fill="#f2f8ff"/>
  <path id="Path_1012" data-name="Path 1012" d="M16.5,34.793a1.793,1.793,0,0,0,1.793,1.793h2.689V33H18.293A1.793,1.793,0,0,0,16.5,34.793Z" transform="translate(-10.226 -18.21)" fill="#e4e8ed"/>
  <rect id="Rectangle_2035" data-name="Rectangle 2035" width="10" height="11" transform="translate(1.356 3.289)" fill="#fff"/>
</svg>
