<svg xmlns="http://www.w3.org/2000/svg" width="24.992" height="22.358" viewBox="0 0 24.992 22.358">
  <g id="активы" transform="translate(-2.45 -4.85)">
    <path id="Path_1032" data-name="Path 1032" d="M26.369,10.062H3.469A.254.254,0,0,1,3.2,9.793V6.138A.508.508,0,0,1,3.738,5.6H26.154a.508.508,0,0,1,.538.538V9.793A.341.341,0,0,1,26.369,10.062Z" transform="translate(0 0)" fill="none" stroke="#f2f8ff" stroke-linecap="round" stroke-width="1.5"/>
    <path id="Path_1033" data-name="Path 1033" d="M25.853,30.3H7.038a.508.508,0,0,1-.538-.538V13.9H26.444V29.758A.632.632,0,0,1,25.853,30.3Z" transform="translate(-1.526 -3.838)" fill="none" stroke="#f2f8ff" stroke-linecap="round" stroke-width="1.5"/>
    <path id="Path_1034" data-name="Path 1034" d="M24.439,23.818h-7.58A1.56,1.56,0,0,1,15.3,22.259h0A1.56,1.56,0,0,1,16.859,20.7h7.58A1.56,1.56,0,0,1,26,22.259h0A1.6,1.6,0,0,1,24.439,23.818Z" transform="translate(-5.595 -6.983)" fill="none" stroke="#f2f8ff" stroke-linecap="round" stroke-width="1.5"/>
  </g>
</svg>
